<svg width="20" height="20" viewBox="0 0 20 20" fill="none" xmlns="http://www.w3.org/2000/svg">
<path d="M16.692 2.29973C16.5022 2.11471 16.2399 2 15.95 2H14.2C14.0064 2 13.85 2.1529 13.85 2.34102V3.02293C13.85 3.21142 14.0066 3.36395 14.2 3.36395H15.6V6.00756C15.6 6.82963 15.0576 7.52878 14.6191 8.18927C13.9299 9.22772 12.3705 9.22772 11.6811 8.18964C11.2275 7.50697 10.7002 6.85915 10.7002 6.00759V3.36397H12.1002C12.2938 3.36397 12.4502 3.21144 12.4502 3.02295L12.4501 2.34104C12.4501 2.15292 12.2935 2.00002 12.1 2.00002H10.35C10.0601 2.00002 9.79765 2.11473 9.60764 2.29975C9.4175 2.48477 9.30003 2.74061 9.30003 3.02309V5.30286C9.30003 6.48579 9.66784 7.58673 10.2879 8.60385C11.3926 10.4156 12.4502 11.0263 12.4209 12.0109C12.4017 12.6423 12.4209 13.2754 12.4209 13.9078C12.4209 15.4118 11.1646 16.6361 9.62099 16.6361H8.94988C7.40608 16.6361 6.14992 15.4118 6.14992 13.9078V11.4482C7.1616 11.1549 7.89988 10.2431 7.89988 9.1615C7.89988 7.8433 6.80281 6.77434 5.44994 6.77434C4.09668 6.77434 3 7.8433 3 9.1615C3 10.2431 3.7378 11.155 4.74997 11.4482V13.9076C4.75035 16.1678 6.63039 18 8.95001 18H9.62112C11.9402 18 13.8212 16.1676 13.8212 13.9076V12.8039C13.8212 12.2831 13.8064 11.321 14.0399 10.8521C14.8179 10.2456 15.7023 9.61427 16.1688 8.69251C16.8283 7.69946 17 6.48576 17 5.30296V3.02281C17 2.74032 16.8821 2.48474 16.692 2.29947L16.692 2.29973ZM4.13782 9.16112C4.13782 8.45638 4.72683 7.88235 5.45023 7.88235C6.1735 7.88235 6.76263 8.45638 6.76263 9.16112C6.76263 9.86624 6.1735 10.4399 5.45023 10.4399C4.7267 10.44 4.13782 9.86611 4.13782 9.16112Z" fill="#9E62B3"/>
</svg>
