<svg width="16" height="16" viewBox="0 0 16 16" fill="none" xmlns="http://www.w3.org/2000/svg">
<path d="M4.29695 1.33203C2.65549 1.33203 1.33398 2.65354 1.33398 4.29499V14.6654H11.7044C13.3458 14.6654 14.6673 13.3439 14.6673 11.7024V4.29499C14.6673 2.65354 13.3458 1.33203 11.7044 1.33203H4.29695ZM8.00065 3.55425C8.39356 3.55425 8.77044 3.7103 9.04822 3.98817C9.3261 4.26595 9.48213 4.64283 9.48213 5.03574C9.48213 5.42865 9.32609 5.80552 9.04822 6.0833C8.77044 6.36119 8.39356 6.51722 8.00065 6.51722C7.60774 6.51722 7.23086 6.36117 6.95309 6.0833C6.6752 5.80552 6.51917 5.42865 6.51917 5.03574C6.51917 4.64283 6.67521 4.26595 6.95309 3.98817C7.23086 3.71029 7.60774 3.55425 8.00065 3.55425ZM7.25991 7.25796H8.74139C9.15176 7.25796 9.48213 7.58833 9.48213 7.9987V11.7024C9.48213 12.1128 9.15176 12.4431 8.74139 12.4431H7.25991C6.84954 12.4431 6.51917 12.1128 6.51917 11.7024V7.9987C6.51917 7.58833 6.84954 7.25796 7.25991 7.25796Z" fill="white"/>
<path d="M7.25991 7.25796H8.74139C9.15176 7.25796 9.48213 7.58833 9.48213 7.9987V11.7024C9.48213 12.1128 9.15176 12.4431 8.74139 12.4431H7.25991C6.84954 12.4431 6.51917 12.1128 6.51917 11.7024V7.9987C6.51917 7.58833 6.84954 7.25796 7.25991 7.25796Z" fill="white"/>
<path d="M8.00065 3.55425C8.39356 3.55425 8.77044 3.7103 9.04822 3.98817C9.3261 4.26595 9.48213 4.64283 9.48213 5.03574C9.48213 5.42865 9.32609 5.80552 9.04822 6.0833C8.77044 6.36119 8.39356 6.51722 8.00065 6.51722C7.60774 6.51722 7.23086 6.36117 6.95309 6.0833C6.6752 5.80552 6.51917 5.42865 6.51917 5.03574C6.51917 4.64283 6.67521 4.26595 6.95309 3.98817C7.23086 3.71029 7.60774 3.55425 8.00065 3.55425Z" fill="white"/>
<path d="M4.29695 1.33203C2.65549 1.33203 1.33398 2.65354 1.33398 4.29499V14.6654H11.7044C13.3458 14.6654 14.6673 13.3439 14.6673 11.7024V4.29499C14.6673 2.65354 13.3458 1.33203 11.7044 1.33203H4.29695ZM8.00065 3.55425C8.39356 3.55425 8.77044 3.7103 9.04822 3.98817C9.3261 4.26595 9.48213 4.64283 9.48213 5.03574C9.48213 5.42865 9.32609 5.80552 9.04822 6.0833C8.77044 6.36119 8.39356 6.51722 8.00065 6.51722C7.60774 6.51722 7.23086 6.36117 6.95309 6.0833C6.6752 5.80552 6.51917 5.42865 6.51917 5.03574C6.51917 4.64283 6.67521 4.26595 6.95309 3.98817C7.23086 3.71029 7.60774 3.55425 8.00065 3.55425ZM7.25991 7.25796H8.74139C9.15176 7.25796 9.48213 7.58833 9.48213 7.9987V11.7024C9.48213 12.1128 9.15176 12.4431 8.74139 12.4431H7.25991C6.84954 12.4431 6.51917 12.1128 6.51917 11.7024V7.9987C6.51917 7.58833 6.84954 7.25796 7.25991 7.25796Z" fill="#4D1C8C"/>
</svg>
