<svg width="20" height="20" viewBox="0 0 20 20" fill="none" xmlns="http://www.w3.org/2000/svg">
<path fill-rule="evenodd" clip-rule="evenodd" d="M15.7844 1.66797H4.68697C4.09108 1.66797 3.59779 2.16122 3.59779 2.75716L3.59766 7.46626L3.59766 10.3439L3.59766 17.2454C3.59766 17.8413 4.09091 18.3346 4.68684 18.3346H8.85002H10.1124L15.7844 18.3346C16.3803 18.3346 16.8735 17.8414 16.8735 17.2454V2.75716C16.853 2.16126 16.3804 1.66797 15.7844 1.66797ZM15.7639 17.451C15.8873 17.451 15.9694 17.3482 15.9694 17.2454L15.99 17.2453V2.75701C15.99 2.63359 15.8872 2.55145 15.7844 2.55145H4.68703C4.5636 2.55145 4.48146 2.65423 4.48146 2.75701V9.53386V12.0719V17.2453C4.48146 17.3687 4.58424 17.4508 4.68703 17.4508L8.09509 17.4509L9.37205 17.4509L15.7639 17.451Z" fill="#9E62B3" stroke="#9E62B3" stroke-width="0.4"/>
<path d="M13.5235 12.0859H6.92673C6.68016 12.0859 6.47461 12.2915 6.47461 12.5381C6.47461 12.7846 6.68018 12.9902 6.92673 12.9902L13.5235 12.99C13.7701 12.99 13.9756 12.7845 13.9756 12.5379C13.9756 12.2914 13.7701 12.0859 13.5235 12.0859V12.0859Z" fill="#9E62B3" stroke="#9E62B3" stroke-width="0.4"/>
<path d="M13.5235 14.7578H6.92673C6.68016 14.7578 6.47461 14.9634 6.47461 15.2099C6.47461 15.4565 6.68018 15.662 6.92673 15.662H13.5235C13.7701 15.662 13.9756 15.4565 13.9756 15.2099C13.9756 14.9634 13.7701 14.7578 13.5235 14.7578Z" fill="#9E62B3" stroke="#9E62B3" stroke-width="0.4"/>
<path d="M13.5235 9.4375H6.92673C6.68016 9.4375 6.47461 9.64307 6.47461 9.88962C6.47461 10.1362 6.68018 10.3417 6.92673 10.3417H13.5235C13.7701 10.3417 13.9756 10.1362 13.9756 9.88962C13.9756 9.62241 13.7701 9.4375 13.5235 9.4375Z" fill="#9E62B3" stroke="#9E62B3" stroke-width="0.4"/>
<path d="M7.70739 7.73186H8.50887C8.61165 7.73186 8.6733 7.64972 8.6733 7.56744V6.29333C8.6733 6.19055 8.59115 6.12891 8.50887 6.12891H7.70739C7.60461 6.12891 7.54297 6.21105 7.54297 6.29333V7.56744C7.54297 7.64972 7.62511 7.73186 7.70739 7.73186Z" fill="#9E62B3" stroke="#9E62B3" stroke-width="0.4"/>
<path d="M9.70153 7.73083H10.503C10.6058 7.73083 10.6674 7.64869 10.6674 7.5664V5.36755C10.6674 5.26477 10.5853 5.20312 10.503 5.20312H9.70153C9.59875 5.20312 9.53711 5.28527 9.53711 5.36755V7.54589C9.53711 7.64867 9.61925 7.73081 9.70153 7.73081V7.73083Z" fill="#9E62B3" stroke="#9E62B3" stroke-width="0.4"/>
<path d="M11.6957 7.73177H12.4972C12.5999 7.73177 12.6616 7.64963 12.6616 7.56734V4.48474C12.6616 4.4026 12.5794 4.32031 12.4972 4.32031H11.6957C11.5929 4.32031 11.5312 4.40245 11.5312 4.48474V7.56734C11.5312 7.64963 11.6134 7.73177 11.6957 7.73177Z" fill="#9E62B3" stroke="#9E62B3" stroke-width="0.4"/>
</svg>
