<svg width="24" height="24" viewBox="0 0 24 24" fill="none" xmlns="http://www.w3.org/2000/svg">
<path fill-rule="evenodd" clip-rule="evenodd" d="M9.09029 19.9989C9.89361 19.9989 10.5448 19.3477 10.5448 18.5444C10.5448 17.7411 9.89361 17.0898 9.09029 17.0898C8.28696 17.0898 7.63574 17.7411 7.63574 18.5444C7.63574 19.3477 8.28696 19.9989 9.09029 19.9989Z" stroke="#9F9DA6" stroke-width="2" stroke-linecap="round" stroke-linejoin="round"/>
<path fill-rule="evenodd" clip-rule="evenodd" d="M17.8188 19.9989C18.6221 19.9989 19.2733 19.3477 19.2733 18.5444C19.2733 17.7411 18.6221 17.0898 17.8188 17.0898C17.0155 17.0898 16.3643 17.7411 16.3643 18.5444C16.3643 19.3477 17.0155 19.9989 17.8188 19.9989Z" stroke="#9F9DA6" stroke-width="2" stroke-linecap="round" stroke-linejoin="round"/>
<path d="M7.39636 7.63636H20L18.7782 13.7382C18.6409 14.4293 18.0281 14.9226 17.3236 14.9091H9.63636C8.90144 14.9153 8.27734 14.3724 8.18182 13.6436L7.07636 5.26545C6.98154 4.54225 6.36576 4.0011 5.63636 4H4" stroke="#9F9DA6" stroke-width="2" stroke-linecap="round" stroke-linejoin="round"/>
</svg>
