<svg width="14" height="18" viewBox="0 0 14 18" fill="none" xmlns="http://www.w3.org/2000/svg">
<path fill-rule="evenodd" clip-rule="evenodd" d="M10.072 14.7207V1.66902C10.072 1.29972 10.3384 1.0003 10.6723 1.0003C11.004 1.0003 11.2728 1.29972 11.2728 1.66902V14.723L11.9509 13.97C12.1833 13.7121 12.5601 13.7122 12.7962 13.9744C13.0307 14.2348 13.0293 14.6584 12.8001 14.9129L11.094 16.8071C10.9785 16.9354 10.8273 16.9999 10.6754 17L10.6707 16.998C10.5183 16.9977 10.3667 16.9337 10.2527 16.8071L8.5466 14.9129C8.31431 14.655 8.31441 14.2365 8.55052 13.9744C8.78503 13.714 9.16658 13.7156 9.39578 13.97L10.072 14.7207ZM3.86347 3.27927V16.331C3.86347 16.7003 3.59701 16.9997 3.26308 16.9997C2.93147 16.9997 2.66259 16.7003 2.66259 16.331V3.27699L1.98449 4.02997C1.75209 4.28789 1.37534 4.28778 1.13922 4.02562C0.904715 3.76524 0.906123 3.3416 1.1353 3.08712L2.84139 1.19285C2.95689 1.06462 3.10816 1.00011 3.26006 1L3.26469 1.00201C3.41717 1.00234 3.56874 1.06629 3.68274 1.19285L5.38883 3.08712C5.62112 3.34504 5.62102 3.76345 5.38491 4.02562C5.1504 4.28599 4.76885 4.28443 4.53965 4.02997L3.86347 3.27927Z" fill="#9F9DA6" stroke="#9F9DA6" stroke-width="0.5"/>
</svg>
